# xmcd CD database file
#
# Track frame offsets:
#	187
#	16742
#	38635
#	62190
#	83345
#	101975
#	120857
#	145600
#	165360
#	181792
#
# Disc length: 2879 seconds
#
# Revision: 0
# Processed by: cddbd v1.5.1PL0 Copyright (c) Steve Scherf et al.
# Submitted via: CDex 1.51
#
DISCID=680b3d0a
DTITLE=やしきたかじん - やしきたかじん／キャッチ・ミー
DYEAR=95
DGENRE=New Age
TTITLE0=愛したあとからメランコリー
TTITLE1=My Friend
TTITLE2=再開−After Five Years−
TTITLE3=ゆめいらんかね
TTITLE4=あんた
TTITLE5=おやすみDon't You Cry
TTITLE6=海鳴り
TTITLE7=ラヴ・イズ・オーヴァー
TTITLE8=ハーバー・ライト
TTITLE9=Too far away
EXTD=YEAR: 95
EXTT0=
EXTT1=
EXTT2=
EXTT3=
EXTT4=
EXTT5=
EXTT6=
EXTT7=
EXTT8=
EXTT9=
PLAYORDER=
